<?xml version="1.0" encoding="iso-8859-1"?>
<!-- Uploaded to: SVG Repo, www.svgrepo.com, Generator: SVG Repo Mixer Tools -->
<svg fill="#000000" height="800px" width="800px" version="1.1" id="Layer_1" xmlns="http://www.w3.org/2000/svg" xmlns:xlink="http://www.w3.org/1999/xlink" 
	 viewBox="0 0 512 512" xml:space="preserve">
<g>
	<g>
		<g>
			<path d="M116.166,188.417l64,42.667c9.803,6.536,23.049,3.886,29.584-5.917s3.886-23.048-5.917-29.584l-64-42.667
				c-9.803-6.536-23.049-3.886-29.584,5.917S106.363,181.882,116.166,188.417z"/>
			<path d="M331.834,231.084l64-42.667c9.803-6.536,12.452-19.781,5.917-29.584s-19.781-12.452-29.584-5.917l-64,42.667
				c-9.803,6.536-12.452,19.781-5.917,29.584S322.03,237.619,331.834,231.084z"/>
			<path d="M256,0C114.618,0,0,114.618,0,256s114.618,256,256,256s256-114.618,256-256S397.382,0,256,0z M63.994,185.899
				c0-43.53,35.713-79.232,79.253-79.232h225.515c43.535,0,79.232,35.697,79.232,79.232v12.203
				c0,43.535-35.697,79.232-79.232,79.232H143.247c-43.541,0-79.253-35.702-79.253-79.232V185.899z M349.083,64H162.917
				c28.13-13.664,59.71-21.333,93.083-21.333S320.953,50.336,349.083,64z M256,469.333c-114.048,0-207.195-89.502-213.039-202.096
				C65.007,299.065,101.778,320,143.247,320h225.515c41.472,0,78.238-20.939,100.278-52.772
				C463.2,379.827,370.051,469.333,256,469.333z"/>
		</g>
	</g>
</g>
</svg>